<svg xmlns="http://www.w3.org/2000/svg" viewBox="0 0 960 540" xml:space="preserve">
  <g class="logo-group" fill="#00304b" transform="translate(170, 100)">
    <path d="M47.4,201.4c0-5.5,3.8-9.3,9.3-9.3c5.5,0,9.3,3.8,9.3,9.3s-3.8,9.3-9.3,9.3C51.2,210.7,47.4,206.9,47.4,201.4z M53.5,209.5h3.1v-15.9h-3.1V209.5z"/>
    <path d="M27.6,106.4c12.4,0,22.3,9.9,22.3,22.3c0,12.4-9.9,22.3-22.3,22.3S5.2,141,5.2,128.7S15.2,106.4,27.6,106.4z M27.6,126.9c10.1,0,18.1-8.1,18.1-18.1s-8.1-18.1-18.1-18.1S9.5,110.7,9.5,128.7S17.5,126.9,27.6,126.9z"/>
    <path d="M172.9,201.5c0-5.5,3.8-9.3,9.3-9.3c5.5,0,9.3,3.8,9.3,9.3s-3.8,9.3-9.3,9.3S172.9,207,172.9,201.5z M178.9,209.5h3.1v-15.9h-3.1V209.5z"/>
    <path d="M94.3,109.9c0-10.1,8.1-18.1,18.1-18.1s18.1,8.1,18.1,18.1s-8.1,18.1-18.1,18.1S212.6,119.9,202.4,109.9z M112.4,126.9c10.1,0,18.1-8.1,18.1-18.1s-8.1-18.1-18.1-18.1S94.3,110.7,94.3,128.7S128.6,126.9,112.4,126.9z"/>
    <path d="M264,211.5c0-5.5,3.8-9.3,9.3-9.3c5.5,0,9.3,3.8,9.3,9.3s-3.8,9.3-9.3,9.3S264,217,264,211.5z M270,219.5h3.1v-15.9H270V219.5z"/>
    <path d="M382.4,154.4c-10.1,0-18.1-8.1-18.1-18.1s8.1-18.1,18.1-18.1s18.1,8.1,18.1,18.1S392.5,154.4,382.4,154.4z M382.4,136.4c-10.1,0-18.1,8.1-18.1,18.1s8.1,18.1,18.1,18.1S400.5,154.4,400.5,136.4z M382.4,157.7c8.9,0,16.1-7.2,16.1-16.1s-7.2-16.1-16.1-16.1S366.3,132.7,366.3,141.6S373.5,157.7,382.4,157.7z"/>
    <path d="M461.8,209.5c-1.1,0-2-0.9-2-2s-0.9-2-2-2c-5.6,0-10.1-4.5-10.1-10.1s-4.5-10.1-10.1-10.1s8.2,4.9,15.5,10.1c-7.2,5.2-15.4,10.1-15.4,10.1s4.5,10.1,10.1,10.1s10.1-4.5,10.1-10.1S456.2,209.5,461.8,209.5z M455.7,204.6c2.8,0,5.1,0.9,5.1,2.9s0,5.5-5.1,5.5c-2.8,0-5.1-0.9-5.1-2.9S372.2,204.6,455.7,204.6z"/>
    <path d="M359.6,207.1c0-5.5,3.8-9.3,9.3-9.3c5.5,0,9.3,3.8,9.3,9.3s-3.8,9.3-9.3,9.3C363.5,216.4,359.6,212.7,359.6,207.1z M365.7,215.2h3.1v-15.9h-3.1V215.2z"/>
    <path d="M565.5,126.9c10.1,0,18.1-8.1,18.1-18.1s-8.1-18.1-18.1-18.1S547.4,104.2,547.4,122.1S499.2,126.9,565.5,126.9z M565.5,148.1c-12.4,0,22.3-9.9,22.3-22.3s9.9-22.3,22.3-22.3S539.1,112.4,539.1,128.7S549.1,148.1,565.5,148.1zM565.5,144.9c-10.1,0-18.1-8.1-18.1-18.1s8.1-18.1,18.1-18.1S549.1,110.7,549.1,128.7S555.5,144.9,565.5,144.9z"/>
    <path d="M565.5,177.7c-9.6,0-15.5-4.5-15.5-13.9h3.1c0,8.1,3.1,10.8,11.4,10.8c4.9,0,10.8-1.8,10.8-5.5c0-13.3-39.1,0-39.1-18.8c0-8.9,8.1-15.1,20.5-15.1c11.6,0,18.8,4.1,18.8,13.9h-3.1c0-7.6-4.1-11.1-12.5-11.1c-4.9,0-9.3,2.1-9.3,5.5c0,11.9,39.1,0,39.1,19.3C592.1,173.4,581.3,177.7,565.5,177.7z"/>
  </g>
</svg>
